inDegrees=no
num_controls=7
num_derivatives=13
num_iterations=149
num_multipliers=7
num_parameters=0
num_slacks=7
num_states=26
objective=5.169161
objective_accelerations=0.635330
objective_balance=0.020200
objective_effort=0.163289
objective_height=4.253143
objective_ligament=0.097199
solver_duration=1637.531460
status=Solve_Succeeded
success=true
DataType=double
version=3
OpenSimVersion=4.4-2022-07-23-0e9fedc
endheader
time	/jointset/ground_pelvis/pelvis_tilt/value	/jointset/ground_pelvis/pelvis_tx/value	/jointset/ground_pelvis/pelvis_ty/value	/jointset/hip_l/hip_flexion_l/value	/jointset/hip_l/hip_adduction_l/value	/jointset/hip_l/hip_rotation_l/value	/jointset/back/lumbar_extension/value	/jointset/patellofemoral_l/patellar_flexion_l/value	/jointset/knee_l/knee_flexion_l/value	/jointset/knee_l/knee_adduction_l/value	/jointset/knee_l/knee_rotation_l/value	/jointset/ankle_l/ankle_angle_l/value	/jointset/subtalar_l/subtalar_angle_l/value	/jointset/ground_pelvis/pelvis_tilt/speed	/jointset/ground_pelvis/pelvis_tx/speed	/jointset/ground_pelvis/pelvis_ty/speed	/jointset/hip_l/hip_flexion_l/speed	/jointset/hip_l/hip_adduction_l/speed	/jointset/hip_l/hip_rotation_l/speed	/jointset/back/lumbar_extension/speed	/jointset/patellofemoral_l/patellar_flexion_l/speed	/jointset/knee_l/knee_flexion_l/speed	/jointset/knee_l/knee_adduction_l/speed	/jointset/knee_l/knee_rotation_l/speed	/jointset/ankle_l/ankle_angle_l/speed	/jointset/subtalar_l/subtalar_angle_l/speed	/forceset/tau_hip_flexion_l	/forceset/tau_hip_adduction_l	/forceset/tau_hip_rotation_l	/forceset/tau_knee_flexion_l	/forceset/tau_ankle_angle_l	/forceset/tau_subtalar_angle_l	/forceset/tau_lumbar_extension	lambda_cid13_p0	lambda_cid13_p1	lambda_cid13_p2	lambda_cid13_p3	lambda_cid13_p4	lambda_cid13_p5	lambda_cid14_p0	/jointset/ground_pelvis/pelvis_tilt/accel	/jointset/ground_pelvis/pelvis_tx/accel	/jointset/ground_pelvis/pelvis_ty/accel	/jointset/hip_l/hip_flexion_l/accel	/jointset/hip_l/hip_adduction_l/accel	/jointset/hip_l/hip_rotation_l/accel	/jointset/back/lumbar_extension/accel	/jointset/patellofemoral_l/patellar_flexion_l/accel	/jointset/knee_l/knee_flexion_l/accel	/jointset/knee_l/knee_adduction_l/accel	/jointset/knee_l/knee_rotation_l/accel	/jointset/ankle_l/ankle_angle_l/accel	/jointset/subtalar_l/subtalar_angle_l/accel	gamma_cid13_p0	gamma_cid13_p1	gamma_cid13_p2	gamma_cid13_p3	gamma_cid13_p4	gamma_cid13_p5	gamma_cid14_p0
1.5	-0.3273081057904742	0.06427040451763512	0.8027326013100208	0.9425930941419743	-0.3570592253764031	-0.07182057395351993	-0.3214603373061022	0.7722076397337332	0.7722076397337363	-0.03396330349226413	-0.1739195350617891	0.2726625205753223	0.1558173964209112	0.4512343273654168	0.2472810995531246	0.4428790363170162	-2.144139782916211	0.02270413364804283	-0.6061489380732369	0.617697295990047	-2.084150993166843	-2.084150993166841	-0.2486693655153995	0.01436311879925992	-0.5509541284090088	-0.1871642664835529	-0.1256947127501401	0.03178765259017882	0.0002134844890097619	-0.1207971981825831	-0.05347825770580906	0.02023487052211476	0.1214541432929934	-39.78682308524806	-4.890976211010025	4.004688398673159	-0.3590737768977011	-431.6551459885886	-65.31758148296124	-12.15243570347824	0.4761018493562912	0.4623405831873582	-0.6926460722089045	-1.109627919350247	0.3222243897358645	-0.4126007396626849	1.43122182697758	-1.062930359110887	-1.06293035911089	-0.2358840126541929	0.243250555776239	-0.4876812093302247	0.4156545292039722	5.016242601630122e-07	7.984140212327758e-07	-4.985120257602484e-06	-1.151043919700529e-07	1.024835013311812e-06	2.018574480776708e-06	6.769991184833215e-07
1.51	-0.3227721226078171	0.06676649587242241	0.8071259556595517	0.9210969988091803	-0.3568185893623757	-0.07790014475896519	-0.3152138787116055	0.7513148484700816	0.7513148484700763	-0.03646802553980993	-0.1737653467818953	0.2671291581839325	0.1539633371682767	0.4558460878312224	0.2519429498788214	0.4356967201330242	-2.154798073689796	0.02541742484418973	-0.6096518955465913	0.631495669324406	-2.094107939963172	-2.094107939963176	-0.25230216887663	0.01653484568058399	-0.5555656098590165	-0.1836031682496743	-0.1200922726088798	0.02909342610087508	0.001015969842933231	-0.1209914887506099	-0.04865374132328349	0.01943527232705699	0.1170988026865192	-38.13204356584608	-4.811916904945071	3.967485901698737	-1.555605574190387	-428.8146706289435	-65.75255430006244	-13.00767873804444	0.436333277225566	0.4690143914559271	-0.7450862244312552	-1.001678148308532	0.2454166319837103	-0.3013668511332172	1.339332049026217	-0.9173364178161747	-0.9173364178169841	-0.4307653635737078	0.2124209667381593	-0.4248338284873852	0.3330483906191257	4.559141661340607e-07	2.280190272022052e-06	-4.631646053036155e-06	9.406244122755765e-08	1.025555981072085e-06	2.71603461645205e-06	7.499889296757313e-07
1.52	-0.3181934977940983	0.06930938715730588	0.8114446744806554	0.8995027708702701	-0.3565509134069036	-0.08401118985911929	-0.3088323989912917	0.7303314358228804	0.7303314358228589	-0.03900983299419399	-0.1735877837906771	0.2615542905349137	0.1521462310820088	0.459762653578336	0.2566410855723573	0.4279519306315582	-2.163766304141211	0.02811212193750221	-0.6124437970183959	0.6447015211532077	-2.102275269876391	-2.1022752698764	-0.2560864468665036	0.01903806105901549	-0.5592551799350789	-0.179773633210219	-0.1144898324674885	0.02639919961167755	0.001818455196624061	-0.1211857793186047	-0.04382922494073167	0.01863567413214906	0.1127434620801444	-36.47198981592292	-4.735569585922354	3.932761876584988	-2.783152342829118	-425.8910979745472	-66.27368806433827	-13.86119274559089	0.3370629056178583	0.4695976567551564	-0.8051407357037141	-0.7716158549161749	0.3185055691690195	-0.2703895393527954	1.31271752586615	-0.7050069824886279	-0.7050069824886277	-0.2661789383827742	0.3095482551977115	-0.3032989345411709	0.4693418903193512	3.586042753017183e-07	3.088440712138727e-06	-3.797862585873874e-06	2.39334958103132e-07	9.063131135735201e-07	2.873855639217641e-06	7.093228136132305e-07
1.53	-0.3135790099380474	0.07189851020926191	0.8156831470960069	0.877828563352275	-0.3562553561181099	-0.09014882210012574	-0.302321602062084	0.709275505976131	0.7092755059760634	-0.04158687259613428	-0.1733840581028397	0.2559462205537502	0.150369753373002	0.4630845057420501	0.2611000636997711	0.4196564755162693	-2.170751934835556	0.03098363763711009	-0.6149093671514295	0.6573254560261826	-2.108621420196423	-2.10862142019643	-0.2594003527957622	0.02178034869749253	-0.5623295533409162	-0.1755449821850899	-0.1112838845654137	0.02617551781176492	0.002631300848275977	-0.116677836707452	-0.04637830714104455	0.01724661335120858	0.1097865844345128	-37.28280523693679	-4.169944217355993	4.047744210135648	-1.558507429906555	-423.2529414693705	-65.38975382260757	-14.71329346196777	0.3222045612202318	0.4216003524588411	-0.8545599308890844	-0.6135212307022592	0.2690553729464879	-0.2081997602619777	1.217370168794648	-0.5561194598106602	-0.556119459810266	-0.3754162902412315	0.2672911369798878	-0.3049959787486023	0.3958637707480099	2.064696003657737e-07	3.181069978415773e-06	-2.4537505272034e-06	3.167197638865438e-07	6.596086711124422e-07	2.458310104516627e-06	5.47897274842388e-07
1.54	-0.3089328119224691	0.07452973353483729	0.8198361027539156	0.8560942026165348	-0.3559315675118073	-0.09630582184446099	-0.29568853804399	0.6881647745455106	0.6881647745455277	-0.04419933523112888	-0.1731507651149804	0.2503083089514986	0.1486348095866734	0.4661046854846551	0.2650611402962192	0.4108485391430564	-2.175796947690223	0.03375838544032574	-0.6163172976838078	0.6691549389304131	-2.113235586638463	-2.113235586638468	-0.2631710535267868	0.02495152108826457	-0.5652235041524996	-0.171466848674429	-0.1080779366633129	0.02595183601181124	0.003444146500868593	-0.1121698940963122	-0.04892738934137889	0.01585755257019764	0.1068297067889133	-38.08901264156856	-3.609110495609983	4.168044475067767	-0.3724722769039036	-420.5796305396855	-64.55597403138745	-15.56374538011577	0.2767284213959586	0.3700173505620312	-0.9076369872885273	-0.3834922869804099	0.2991519898905325	-0.05886161922179058	1.153827132117327	-0.3586102068901888	-0.3586102068901869	-0.3575378987359539	0.395325205656713	-0.2672144156904134	0.4392383874257057	1.62596875590406e-08	3.895906427842231e-06	-8.880207756842371e-07	4.810904017099927e-07	3.537674878626072e-07	2.153374601138258e-06	4.156790662917449e-07
